<?xml version="1.0" standalone="no"?>
<!DOCTYPE svg PUBLIC "-//W3C//DTD SVG 20010904//EN"
 "http://www.w3.org/TR/2001/REC-SVG-20010904/DTD/svg10.dtd">
<svg version="1.0" xmlns="http://www.w3.org/2000/svg"
 width="486.000000pt" height="95.000000pt" viewBox="0 0 486.000000 95.000000"
 preserveAspectRatio="xMidYMid meet">

<g transform="translate(0.000000,95.000000) scale(0.100000,-0.100000)"
fill="#000000" stroke="none">
<path d="M272 943 c-10 -4 -10 -9 3 -23 24 -27 13 -49 -56 -109 -46 -41 -70
-72 -95 -125 -19 -39 -34 -84 -34 -100 0 -21 -11 -39 -40 -66 -22 -20 -40 -41
-40 -46 0 -5 23 -9 51 -9 41 0 55 -5 70 -24 l19 -23 0 31 c0 17 -7 47 -15 67
-9 23 -11 42 -6 57 14 37 115 124 157 137 60 17 189 26 180 12 -4 -7 -17 -12
-29 -12 -22 -1 -22 -1 -2 -16 24 -19 79 -12 106 12 18 16 22 15 81 -14 34 -17
64 -30 65 -28 7 7 -16 98 -30 120 -40 60 -139 106 -231 106 -22 0 -47 7 -56
15 -22 20 -82 43 -98 38z"/>
<path d="M2370 740 c0 -5 10 -10 23 -10 35 0 57 -21 67 -65 8 -36 14 -145 8
-145 -2 0 -25 7 -52 15 -98 30 -185 10 -240 -56 -106 -125 -74 -385 56 -448
71 -34 166 -23 220 26 17 15 19 14 39 -11 14 -18 30 -26 51 -26 l30 0 -4 341
-3 341 -28 24 c-24 20 -39 24 -98 24 -39 0 -69 -4 -69 -10z m60 -248 l35 -17
3 -173 c1 -110 -1 -180 -8 -193 -17 -30 -70 -59 -110 -59 -45 0 -75 21 -103
73 -19 37 -22 57 -22 157 0 102 3 120 23 156 42 72 108 92 182 56z"/>
<path d="M300 542 c0 -5 13 -15 30 -20 41 -15 57 -46 157 -294 48 -120 92
-218 98 -218 6 0 42 77 80 170 44 107 72 165 77 157 4 -8 35 -81 68 -163 60
-147 74 -173 86 -162 3 3 54 124 113 267 l108 261 -27 0 c-26 0 -31 -8 -95
-167 -38 -93 -72 -172 -75 -176 -4 -5 -32 51 -61 123 -75 184 -119 230 -219
230 -48 0 -52 -13 -10 -30 18 -7 41 -31 56 -55 l25 -43 -47 -117 c-26 -64 -50
-113 -54 -108 -4 4 -27 55 -50 113 -60 148 -75 175 -116 206 -25 20 -51 29
-90 32 -33 3 -54 1 -54 -6z"/>
<path d="M1258 536 c-55 -20 -85 -42 -118 -87 -51 -71 -63 -205 -26 -292 61
-147 255 -193 376 -90 67 58 85 102 85 213 0 79 -4 102 -22 136 -58 109 -184
160 -295 120z m146 -56 c48 -42 71 -108 71 -200 0 -92 -23 -158 -71 -200 -62
-54 -130 -34 -177 53 -19 36 -22 58 -22 147 0 89 3 111 22 147 47 87 115 107
177 53z"/>
<path d="M1807 536 c-20 -7 -44 -19 -52 -26 -13 -10 -19 -9 -36 6 -16 14 -40
20 -100 23 -53 2 -79 0 -79 -8 0 -6 11 -11 24 -11 13 0 34 -9 47 -19 24 -19
24 -21 27 -250 l3 -231 50 0 49 0 0 219 0 220 30 21 c41 29 99 36 137 17 56
-29 63 -62 63 -281 l0 -196 50 0 50 0 0 203 c0 190 -2 204 -23 241 -12 22 -37
48 -55 59 -42 25 -136 32 -185 13z"/>
<path d="M2733 525 c-123 -56 -169 -245 -97 -392 46 -94 148 -139 257 -114 54
12 109 48 128 82 17 33 -5 45 -25 15 -43 -67 -167 -86 -223 -35 -34 32 -63 95
-63 142 l0 37 171 0 172 0 -7 71 c-3 39 -15 87 -26 108 -52 102 -174 139 -287
86z m157 -43 c31 -31 50 -86 50 -144 l0 -38 -115 0 -115 0 0 33 c0 55 21 110
55 144 43 43 85 44 125 5z"/>
<path d="M3270 539 c-14 -5 -35 -20 -47 -31 l-22 -21 -20 24 c-16 20 -29 24
-95 27 -51 3 -76 1 -76 -7 0 -6 11 -11 23 -11 13 0 32 -9 43 -21 17 -19 19
-41 22 -250 l3 -229 50 0 49 0 0 203 c0 203 0 204 24 226 32 30 103 39 144 19
16 -9 36 -12 43 -8 11 7 13 -1 10 -36 -6 -88 28 -125 171 -184 79 -32 128 -74
128 -110 0 -10 -11 -31 -24 -46 -20 -24 -32 -28 -87 -31 -83 -5 -126 16 -154
74 -11 23 -23 42 -27 43 -14 0 -8 -85 7 -108 23 -32 114 -55 194 -50 119 9
181 59 181 147 0 60 -37 96 -156 152 -144 67 -178 119 -113 173 63 53 177 26
214 -51 11 -23 23 -42 28 -43 13 0 7 85 -8 107 -45 64 -248 69 -315 8 -18 -16
-20 -16 -43 10 -18 22 -34 28 -73 31 -27 2 -60 -1 -74 -7z"/>
<path d="M3953 525 c-123 -56 -169 -245 -97 -392 46 -94 148 -139 257 -114 54
12 109 48 128 82 17 33 -5 45 -25 15 -43 -67 -167 -86 -223 -35 -34 32 -63 95
-63 142 l0 37 171 0 172 0 -7 71 c-3 39 -15 87 -26 108 -52 102 -174 139 -287
86z m157 -43 c31 -31 50 -86 50 -144 l0 -38 -115 0 -115 0 0 33 c0 55 21 110
55 144 43 43 85 44 125 5z"/>
<path d="M4384 539 c-51 -12 -83 -45 -91 -93 -5 -34 -4 -36 21 -36 20 0 29 8
40 34 19 46 66 70 123 63 24 -2 52 -12 62 -21 22 -20 41 -80 41 -128 l0 -35
-86 -6 c-99 -7 -182 -40 -210 -82 -24 -37 -23 -119 3 -153 40 -54 69 -67 147
-67 62 0 78 4 114 27 l41 28 19 -25 c12 -16 30 -25 47 -25 l26 0 -3 203 c-3
182 -5 206 -24 242 -29 56 -71 78 -158 81 -39 2 -89 -1 -112 -7z m196 -341 c0
-64 -5 -88 -18 -104 -69 -85 -192 -40 -192 70 0 65 72 115 168 116 l42 0 0
-82z"/>
<path d="M4755 106 c-11 -8 -18 -26 -18 -46 0 -54 61 -81 96 -42 50 55 -19
132 -78 88z"/>
</g>
</svg>
